<?xml version="1.0" encoding="UTF-8"?>
<svg width="224px" height="220px" viewBox="0 0 224 220" version="1.1" xmlns="http://www.w3.org/2000/svg" xmlns:xlink="http://www.w3.org/1999/xlink">
    <!-- Generator: Sketch 48.2 (47327) - http://www.bohemiancoding.com/sketch -->
    <title>ICON-DESING</title>
    <desc>Created with Sketch.</desc>
    <defs></defs>
    <g id="Desktop" stroke="none" stroke-width="1" fill="none" fill-rule="evenodd" transform="translate(-204.000000, -1293.000000)">
        <g id="ICON-DESING" transform="translate(204.000000, 1293.000000)" fill="#FFFFFF">
            <g id="ICON">
                <path d="M96.3091787,0 L27.5169082,0 C13.7584541,0 0,13.75 0,27.5 L0,192.5 C0,206.25 13.7584541,220 27.5169082,220 L96.3091787,220 C110.067633,220 123.826087,206.25 123.826087,192.5 L123.826087,27.5 C123.826087,13.75 110.067633,0 96.3091787,0 L96.3091787,0 Z M62.6086957,206.075949 C58.7130435,206.075949 55.6521739,203.012658 55.6521739,199.113924 C55.6521739,195.21519 58.7130435,192.151899 62.6086957,192.151899 C66.5043478,192.151899 69.5652174,195.21519 69.5652174,199.113924 C69.5652174,203.012658 66.5043478,206.075949 62.6086957,206.075949 L62.6086957,206.075949 Z M109.913043,178.227848 L13.9130435,178.227848 L13.9130435,13.9240506 L109.913043,13.9240506 L109.913043,178.227848 L109.913043,178.227848 Z" id="Shape"></path>
                <path d="M205.82029,51.5189873 L105.831884,51.5189873 C96.742029,51.5189873 87.6521739,60.6231743 87.6521739,69.7273612 L87.6521739,151.665044 C87.6521739,160.769231 96.742029,169.873418 105.831884,169.873418 L205.82029,169.873418 C214.910145,169.873418 224,160.769231 224,151.665044 L224,69.7273612 C224,60.6231743 214.910145,51.5189873 205.82029,51.5189873 L205.82029,51.5189873 Z M155.826087,160.126582 C153.488696,160.126582 151.652174,158.288608 151.652174,155.949367 C151.652174,153.610127 153.488696,151.772152 155.826087,151.772152 C158.163478,151.772152 160,153.610127 160,155.949367 C160,158.288608 158.163478,160.126582 155.826087,160.126582 L155.826087,160.126582 Z M214.26087,142.025316 L96,142.025316 L96,59.8734177 L214.26087,59.8734177 L214.26087,142.025316 L214.26087,142.025316 Z" id="Shape"></path>
            </g>
            <path d="M22,95.3594771 L22,100 L26.454902,100 L30.9098039,100 L35.3647059,100 L44.2745098,100 L44.2745098,90.7189542 L39.8196078,90.7189542 L39.8196078,86.0784314 L30.9098039,86.0784314 L30.9098039,90.7189542 L26.454902,90.7189542 L26.454902,95.3594771 L22,95.3594771 L22,95.3594771 Z M40.0980392,82.697479 L44.5065359,82.697479 L44.5065359,87.1722689 L48.9150327,87.1722689 L48.9150327,91.6470588 C48.9150327,91.6470588 66.2845098,77.6857143 75.3660131,64.7983193 C84.4475163,51.9109244 93,29 93,29 C93,29 78.4078758,39.3367647 62.1405229,55.8487395 C45.8731699,72.3607143 40.0980392,82.697479 40.0980392,82.697479 L40.0980392,82.697479 Z" id="Shape"></path>
        </g>
    </g>
</svg>